<svg xmlns="http://www.w3.org/2000/svg" viewBox="0 0 74.58 55.94"><defs><style>.cls-1{fill:#fff;}</style></defs><title>envelope</title><g id="Layer_2" data-name="Layer 2"><g id="Layer_1-2" data-name="Layer 1"><path class="cls-1" d="M65.26,0H9.32A9.32,9.32,0,0,0,0,9.32V46.61a9.33,9.33,0,0,0,9.32,9.33H65.26a9.33,9.33,0,0,0,9.32-9.33V9.32A9.32,9.32,0,0,0,65.26,0ZM49.91,24.88,69.65,8a4.32,4.32,0,0,1,.27,1.35V46.61a4.07,4.07,0,0,1-.19.92ZM65.26,4.66a4.2,4.2,0,0,1,.87.18L37.29,29.56,8.45,4.84a4.2,4.2,0,0,1,.87-.18ZM4.85,47.52a3.87,3.87,0,0,1-.19-.91V9.32A4.33,4.33,0,0,1,4.94,8l19.72,16.9Zm4.47,3.75A4.55,4.55,0,0,1,8,51L28.2,27.91l7.58,6.49a2.32,2.32,0,0,0,1.51.56,2.36,2.36,0,0,0,1.52-.56l7.57-6.49L66.59,51a4.55,4.55,0,0,1-1.33.26Z"/></g></g></svg>