<svg xmlns="http://www.w3.org/2000/svg" viewBox="0 0 15.2 32.72"><defs><style>.cls-1{fill:#fff;fill-rule:evenodd;}</style></defs><title>facebook</title><g id="Layer_2" data-name="Layer 2"><g id="Design"><path class="cls-1" d="M3.35,16.49V32.31a.41.41,0,0,0,.41.41H9.64a.42.42,0,0,0,.41-.41V16.23h4.26a.41.41,0,0,0,.41-.38L15.13,11a.42.42,0,0,0-.41-.45H10.05V7.13a1.46,1.46,0,0,1,1.46-1.46h3.28a.41.41,0,0,0,.41-.41V.41A.41.41,0,0,0,14.79,0H9.24A5.89,5.89,0,0,0,3.35,5.89v4.67H.41A.41.41,0,0,0,0,11v4.85a.41.41,0,0,0,.41.41H3.35Z"/></g></g></svg>