
<!-- Generator: Adobe Illustrator 24.1.2, SVG Export Plug-In . SVG Version: 6.00 Build 0)  -->
<svg version="1.1" id="Layer_1" xmlns="http://www.w3.org/2000/svg" xmlns:xlink="http://www.w3.org/1999/xlink" x="0px" y="0px"
	 viewBox="0 0 425.2 425.2" style="enable-background:new 0 0 425.2 425.2;" xml:space="preserve">
<style type="text/css">
	.st0{fill-rule:evenodd;clip-rule:evenodd;fill:#D0B000;}
	.st1{fill:#D0B000;}
</style>
<g>
	<g>
		<path class="st0" d="M353.8,212.6l-1.8-0.1l-108.6-7.7c-0.8-2.9-1.9-5.6-3.5-8.1l72.7-83.7c0,0,0.3-0.5,0-0.8
			c-0.3-0.3-0.9,0-0.9,0l-1.4,1.2l-82.7,71.8c-4.3-2.2-9.2-3.5-14.4-3.5c-6,0-11.7,1.7-16.5,4.7l-85.5-74.2c0,0-0.5-0.4-0.8,0
			c-0.3,0.3,0,0.9,0,0.9l1.2,1.4l73.6,84.7c-0.9,1.7-1.6,3.6-2.1,5.5l-114,8c0,0-0.6,0.1-0.6,0.6c0,0.5,0.6,0.6,0.6,0.6l1.9,0.1
			l112.3,7.9c0.5,1.8,1.3,3.6,2.1,5.2l-75,86.4c0,0-0.3,0.5,0,0.8c0.3,0.3,0.9,0,0.9,0l1.4-1.2l84.5-73.4c1.8,1.1,3.7,2,5.7,2.7
			l8,113.2c0,0,0.1,0.6,0.6,0.6c0.5,0,0.6-0.6,0.6-0.6l0.1-1.8l7.8-110.4c2.5-0.6,4.9-1.4,7.1-2.5l84.6,73.5c0,0,0.5,0.3,0.8,0
			c0.3-0.3,0-0.9,0-0.9l-1.2-1.4l-71.7-82.6c1.5-2.4,2.7-5.1,3.5-7.9l110.7-7.8c0,0,0.6-0.1,0.6-0.6
			C354.5,212.7,353.8,212.6,353.8,212.6z M213.8,235.8c-12.8,0-23.1-10.4-23.1-23.1c0-12.8,10.4-23.1,23.1-23.1
			c12.8,0,23.1,10.4,23.1,23.1C237,225.4,226.6,235.8,213.8,235.8z"/>
		<path class="st1" d="M211.5,356.6c-0.6,0-1-0.5-1.1-1l-8-113c-1.8-0.7-3.6-1.5-5.2-2.4l-85.7,74.4c-0.5,0.3-1.1,0.4-1.5,0
			c-0.4-0.4-0.3-1.1,0-1.5l74.8-86.2c-0.8-1.5-1.4-3.1-1.9-4.7l-113.8-8c-0.6-0.1-1.1-0.5-1.1-1.1c0-0.6,0.5-1,1-1.1l113.7-8
			c0.5-1.7,1.1-3.4,1.9-4.9L110,113.2c-0.3-0.5-0.4-1.1,0-1.5c0.4-0.4,1.1-0.3,1.5,0l85.3,74c4.9-3,10.6-4.6,16.4-4.6
			c5,0,9.9,1.2,14.3,3.4l83.9-72.8c0.5-0.3,1.1-0.4,1.5,0c0.4,0.4,0.3,1.1,0,1.5l-72.5,83.5c1.4,2.4,2.5,4.9,3.2,7.6l110.2,7.8
			c0.5,0.1,1,0.5,1,1.1c0,0.6-0.5,1-1,1.1L243.5,222c-0.8,2.6-1.9,5-3.3,7.3l72.7,83.7c0.3,0.4,0.5,1,0,1.5c-0.4,0.4-1.1,0.3-1.5,0
			L227,241.4c-2.1,1-4.3,1.8-6.6,2.3l-7.9,111.8C212.5,356.1,212.1,356.6,211.5,356.6z M197.1,239l0.3,0.2c1.8,1.1,3.7,2,5.6,2.6
			l0.3,0.1l0,0.3l8,113.2c0,0,0.1,0.1,0.1,0.1c0,0,0.1-0.1,0.1-0.2l7.9-112.5l0.4-0.1c2.4-0.5,4.8-1.4,7-2.5l0.3-0.1l0.3,0.2
			l84.6,73.5c0,0,0.1,0,0.2,0c0,0-0.1-0.1-0.1-0.2L239,229.4l0.2-0.3c1.5-2.4,2.7-5,3.5-7.7l0.1-0.3l111-7.8c0,0,0.1-0.1,0.1-0.1
			c0,0-0.1-0.1-0.2-0.1l-1.8-0.1l-109-7.7l-0.1-0.3c-0.8-2.8-1.9-5.5-3.4-8l-0.2-0.3l0.2-0.3l72.7-83.7c0,0,0-0.1,0-0.2
			c0,0-0.1,0-0.2,0.1l-1.4,1.2l-83,72.1l-0.3-0.2c-4.3-2.3-9.2-3.5-14.2-3.5c-5.7,0-11.3,1.6-16.2,4.6l-0.3,0.2l-85.8-74.5
			c0,0-0.1,0-0.2,0c0,0,0.1,0.2,0.1,0.2l1.2,1.4l73.8,85l-0.1,0.3c-0.8,1.7-1.5,3.5-2,5.4l-0.1,0.3l-114.3,8.1c0,0-0.1,0.1-0.1,0.1
			c0,0,0.1,0.1,0.2,0.1l1.8,0.1l112.6,7.9l0.1,0.3c0.5,1.8,1.2,3.5,2.1,5.1l0.2,0.3l-75.2,86.6c0,0,0,0.1,0,0.2c0,0,0.2-0.1,0.2-0.1
			L197.1,239z M213.8,236.3c-13,0-23.6-10.6-23.6-23.6c0-13,10.6-23.6,23.6-23.6c13,0,23.6,10.6,23.6,23.6
			C237.5,225.7,226.9,236.3,213.8,236.3z M213.8,190c-12.5,0-22.6,10.2-22.6,22.6c0,12.5,10.2,22.6,22.6,22.6
			c12.5,0,22.6-10.2,22.6-22.6C236.5,200.2,226.3,190,213.8,190z"/>
	</g>
</g>
<g>
	<path class="st1" d="M18.8,188.3c0.5,6.1,0.9,6.5,6.2,6.4l23.9-0.4c5.2-0.1,5.6-0.7,5.9-6.6l2.2,0l0.4,23.7l-2.2,0
		c-0.5-6.2-1-6.7-6.2-6.7L37.5,205l0.4,21.2l11.6-0.2c5.3-0.1,5.6-0.7,6-6.5l2.2,0l0.4,23.2l-2.2,0c-0.5-5.7-0.9-6.4-6.2-6.3
		l-23.9,0.4c-5.3,0.1-5.6,0.8-6,6.8l-2.2,0l-0.4-23.3l2.2,0c0.5,5.6,0.9,6.2,6.2,6.1l9.1-0.2L34.4,205l-9.1,0.2
		c-5.3,0.1-5.6,0.7-6,6.5l-2.2,0l-0.4-23.3L18.8,188.3z"/>
	<path class="st1" d="M56,128.6c12.6,4.5,16.3,18.6,11.4,32.4c-5.2,14.6-17.5,21.7-28.7,17.7c-10.1-3.6-16.8-16.1-10.8-32.8
		C32.6,132.5,44.4,124.4,56,128.6z M41.5,167.1c10,3.6,20.5,1,23.8-8.3c2.5-7-1-14.5-11.7-18.4c-11.7-4.2-20.8-0.7-23.8,7.7
		C27.2,155.4,31.4,163.5,41.5,167.1z"/>
	<path class="st1" d="M79.5,82.7c-3.1-1.3-5.4-1.7-7.1-1.3c-1.7,0.3-3.2,1.7-6,5.3l-2.2,2.8l23.1,18.1c4.2,3.3,4.9,2.9,9.5-2.2
		l1.7,1.3l-15.6,19.9l-1.7-1.3c3.7-5.4,3.9-6.2-0.3-9.5L57.7,97.7l-1.6,2.1c-3.9,5-4.3,6.5-4.2,8.1c0.1,1.6,1.1,3.7,2.9,6.4
		l-1.7,2.2c-3.4-3-6.7-6.2-9.1-8.3l1.2-1.5c1.9-0.1,2.6-0.8,4-2.5l19.3-24.6c1.3-1.7,1.7-2.7,1.6-4.5l1.2-1.5
		c2.1,1.5,6.6,4.6,10,6.8L79.5,82.7z"/>
	<path class="st1" d="M134.3,65.2c1.2,2.5,3.2,8.1,3.8,10l-32.3,23l-1.3-1.8c5.1-4.2,5.5-4.9,2.5-9.3L93.2,67.8
		c-3.1-4.4-4-4.2-8.7-1.3l-1.3-1.8l29.8-21.3c0.7,0.9,3.6,4.2,6.1,7.1l-2.1,1.9c-1.9-1.3-3.9-2.4-5.7-2.5c-1.7-0.1-3.7,0.7-7.2,3.3
		l-3,2.2c-2.3,1.7-2.5,2-1.3,3.6l7.7,10.7l4.2-3c5.3-3.8,6-4.6,4.3-8.8l2.3-1.6l7.3,10.2l-2.3,1.6c-3.5-3-4.4-2.7-9.8,1.2l-4.2,3
		l6.3,8.8c1.7,2.4,2.9,3.5,4.5,3.1c1.4-0.4,3.6-1.8,6.1-3.6c3.2-2.3,5.2-4.3,5.9-6.6c0.4-2,0.4-4.4,0-7.5L134.3,65.2z"/>
	<path class="st1" d="M175.2,49.8c0.3,2.7,0.9,9.1,0.9,10.9l-35.5,13.1l-0.8-2c6.2-2.8,6.8-3.4,5-8.3l-8.2-22.3
		c-1.9-5-2.7-5.1-8.4-3.5l-0.8-2l22.3-8.2l0.8,2c-5.5,2.5-6,3.1-4.1,8.1l8.4,22.8c1,2.7,1.7,3.7,3.4,3.6c1.4,0,3.4-0.7,5.7-1.5
		c3.1-1.1,5.5-2.5,6.7-4.7c0.9-1.7,1.6-4.1,1.9-7.5L175.2,49.8z"/>
	<path class="st1" d="M235.4,58.8l0.2-2.2c5.9,0,6.4-0.4,6.8-6.1l1.9-23.9l-0.4,0L224,57.4l-2.2-0.2l-13.1-33l-0.3,0l-2.3,16.1
		c-0.8,5.1-1,8-0.9,10c0.1,2.8,1.6,3.5,6.7,4.3l-0.2,2.2l-18.6-1.6l0.2-2.2c4.4,0.1,5.9-0.9,6.6-3.1c0.6-1.9,1.5-5.1,2.6-11.6
		l2.3-12.1c1.2-7,0.8-7.9-5.9-9l0.2-2.2l16,1.4l12.6,28.4l17.5-25.8l15.6,1.3l-0.2,2.2c-6.2,0-6.6,0.4-6.9,5.6l-1.3,23.2
		c-0.3,5.7,0,6.2,6,7.2l-0.2,2.2L235.4,58.8z"/>
	<path class="st1" d="M285.1,75.3l1-1.9c4.4,1.5,5,1,5.1-2c0.1-2,0.3-4.9,0.3-7.7l-13.4-6.7c-1.6,1.3-3.5,2.9-5.5,4.7
		c-2.3,2.2-2.6,3,2.3,6.1l-1,1.9L258.4,62l1-1.9c4.8,1.8,6,1.6,10.6-1.9l28.5-21.5l3.9,1c-0.4,12-0.9,23.8-1.1,35.6
		c-0.1,6.1,0.5,7.3,4.6,9.9l-1,1.9L285.1,75.3z M292.5,45.5l-0.2-0.1c-4,3.1-7.7,6.2-11.5,9.3l10.9,5.4L292.5,45.5z"/>
	<path class="st1" d="M339.5,120.7c-0.3-0.3-0.9-1-1.6-1.7c-6.7-7.2-7.6-10.5-7.1-15.5c0.4-3.2,1.2-7.1,1.9-11
		c0.5-2.2,0-3.8-1.7-5.6l-1-1l-6.4,6.4c-3.6,3.6-3.5,4.6,0.3,9l-1.5,1.5l-16.7-16.5l1.5-1.5c4.4,3.8,5.5,4,9.1,0.3l16.8-16.9
		c3.5-3.5,3.4-4.5-0.3-8.8l1.5-1.5L350,73.3c4.8,4.8,7.2,8,8.2,11.4c1.1,3.3,0.6,6.9-2.1,9.6c-3.9,3.9-9.1,2.8-14,0.3
		c-0.5,2-1.3,7.1-1.8,10.7c-0.4,4.4-0.7,7-0.5,9c0.2,2.2,0.6,3.6,1.5,5.2L339.5,120.7z M333.2,85.6c2.3,2.3,4.5,3.9,6.6,4.2
		c3.1,0.6,5.6-0.4,7.9-2.6c4.6-4.7,2.9-9.8-0.2-12.9c-1.4-1.4-2.3-2-2.9-2c-0.6-0.1-1.2,0.2-2.1,1.1l-10.7,10.8L333.2,85.6z"/>
	<path class="st1" d="M339.3,122.1l1.9-1.1c3.4,4.7,4.1,5.1,8.6,2.3l20.4-12.4c4.5-2.7,4.5-3.6,1.9-8.7l1.9-1.1l12.1,19.9l-1.9,1.1
		c-3.4-4.7-4.1-5.1-8.6-2.3l-20.4,12.4c-4.5,2.7-4.5,3.5-1.9,8.7l-1.9,1.1L339.3,122.1z"/>
	<path class="st1" d="M406.1,185.1c-1.3-4-2.6-5.3-5.4-4.9c-1.9,0.3-4.9,0.7-10.1,2.2l-23.7,6.9l-1-3.6l20.7-39.7l-0.1-0.2
		l-13.4,3.9c-5.3,1.5-7.8,2.7-9.5,3.4c-2.5,1.1-3.3,2.7-1.9,8.3l-2.1,0.6l-5.3-18.3l2.1-0.6c1.5,4.1,2.9,5.6,5.6,5.1
		c2.1-0.3,4.8-0.6,10.1-2.1l12.5-3.6c3.9-1.1,5-1.6,5.9-3.4c1-1.8,1-3.6,0.4-6.8l2.1-0.6l4,13.8l-18,36.1l0.1,0.3l10.5-3
		c5.3-1.5,7.9-2.8,9.6-3.4c2.5-1.1,3-3,1.7-8.5l2.1-0.6l5.3,18.2L406.1,185.1z"/>
	<path class="st1" d="M367.6,221.9l2.2,0.1c0.4,4.6,1.1,5,3.9,3.9c1.9-0.7,4.5-1.8,7.1-2.9l0.5-14.9c-1.9-0.9-4.1-2-6.6-3
		c-2.9-1.2-3.8-1.1-4.6,4.6l-2.2-0.1l0.6-17.4l2.2,0.2c0.3,5.1,1,6.1,6.1,8.8l31.4,17l0.7,4c-11.1,4.6-22,9-32.9,13.7
		c-5.6,2.4-6.4,3.4-7.1,8.3l-2.2-0.1L367.6,221.9z M397.8,216.3l0-0.2c-4.5-2.3-8.9-4.4-13.2-6.6l-0.4,12.1L397.8,216.3z"/>
</g>
<g>
	<path class="st1" d="M120.9,352.6c-3.8-2.9-5.3-3.2-11.3-1c-4.9,1.7-18.8,7.2-31.2,12.4l-2.7-2.5c3.5-11.4,7.9-26.6,9.6-33.2
		c1.4-4.9,1.1-6.4-2-9.6l1.4-1.6l16.3,14.7l-1.4,1.6c-4.4-3.1-4.9-2.6-5.7,0c-1.6,4.9-5.2,17.7-7,23.6l0.2,0.1
		c8.8-3.7,15.7-6.6,20.7-9c4-2,4.5-2.6,0.4-7.1l1.4-1.6l12.8,11.6L120.9,352.6z"/>
	<path class="st1" d="M145.4,393.5c-1.6,2.2-5.4,6.3-6.7,7.6L105,384.3l0.9-1.8c5.8,2.4,6.6,2.5,8.9-2l10.1-20.3
		c2.3-4.6,1.8-5.2-2.8-7.8l0.9-1.8l31.1,15.6c-0.4,1-1.9,4.8-3.3,8.2l-2.5-0.9c0.3-2.2,0.3-4.3-0.4-5.9c-0.6-1.5-2.2-2.8-5.9-4.6
		l-3.2-1.6c-2.4-1.2-2.8-1.2-3.6,0.5l-5.6,11.2l4.4,2.2c5.5,2.8,6.5,2.9,9.3-0.3l2.4,1.2l-5.3,10.7l-2.4-1.2c1-4.3,0.3-4.9-5.3-7.7
		l-4.4-2.2l-4.6,9.1c-1.2,2.5-1.6,3.9-0.6,5.1c1,1,3.2,2.2,5.7,3.5c3.4,1.7,5.9,2.5,8.2,2c1.8-0.5,3.9-1.6,6.3-3.3L145.4,393.5z"/>
	<path class="st1" d="M180.1,372.7c9.1,1.7,15.8,4.4,19.9,8.9c3.1,3.4,5.1,8,4.1,13.5c-1.3,7.1-5.8,11.5-11.9,13.9
		c-6,2.3-13.8,2.4-22.9,0.8l-18.6-3.4l0.4-2c5.8,0.6,6.6,0.4,7.5-4.6l4.1-22.2c0.9-5,0.3-5.5-4.7-6.8l0.4-2L180.1,372.7z
		 M168.3,401.1c-0.8,4.2,0.1,5.8,5.1,6.8c9.7,1.8,17.6-3.4,19.5-13.7c1-5.5-0.3-10.3-3.1-13.5c-2.6-2.9-6.2-4.9-11.2-5.8
		c-2.6-0.5-4.2-0.3-4.7,0c-0.7,0.4-1.1,1.4-1.4,3L168.3,401.1z"/>
	<path class="st1" d="M237.4,392.1c8.6,0,14.5,2.1,15.1,7.7c0.4,3.9-2,7.3-6,9.5c-3.6,2.1-9.1,3.5-15.2,4.1l-18.6,1.9l-0.2-2.1
		c5.6-1,6.2-1.5,5.7-6.5l-2.3-22.4c-0.5-5-1.2-5.3-6.5-5.2l-0.2-2.1l21.4-2.2c5.7-0.6,9.4-0.4,12.3,0.8c2.9,1.1,4.7,3.3,5,6.3
		c0.6,5.6-5.4,8.5-10.6,9.9L237.4,392.1z M228.1,392.2c7-0.7,10-3.3,9.5-8.1c-0.5-5.3-4.7-6.9-8.7-6.5c-1.6,0.2-2.8,0.6-3.2,1
		c-0.5,0.5-0.5,1.4-0.4,2.6l1.1,11.2L228.1,392.2z M227.8,405.7c0.4,4.3,2,5.4,5.9,5c4.1-0.5,8.5-3.4,7.9-9.1
		c-0.6-5.5-5.1-7.8-13.5-7l-1.5,0.2L227.8,405.7z"/>
	<path class="st1" d="M317.4,376.6c0.4,2.2,1.2,8.1,1.3,10.1l-34,14.5l-0.8-1.9c5.3-2.7,5.7-3.6,3.5-8.6l-3.4-8l-11.4,4.9
		c-1,6.3-1.1,8.7-1.5,11.9c-0.3,3.9,0.5,4.3,5.7,2.8l0.8,1.9l-16.5,7.1l-0.8-1.9c4.1-2.3,5.3-3.9,6.2-8.7c1.8-9.1,3.4-18.2,5.3-30.1
		c0.3-2.2,0-2.7-2.2-2l-4.2,1.4l-0.8-1.9l37.5-16.1c0.5,0.9,2.4,4.7,4.1,7.7l-2.3,1.3c-1.7-1.9-3-3-4.6-3.4c-1.5-0.5-3.7,0-7.4,1.6
		l-3.5,1.5c-2.4,1-2.7,1.3-1.9,3.1l5.4,12.6l4.4-1.9c5.9-2.5,6.8-3.3,5.9-7.3l2.5-1.1l4.7,10.9l-2.5,1.1c-2.5-3.7-3.6-3.5-9.5-1
		l-4.4,1.8l3.6,8.3c1.3,3,2.1,4.1,3.7,4c1.4-0.1,3.7-1.1,6.3-2.2c3.4-1.5,5.8-3,6.6-4.9c0.8-1.6,1.6-3.8,1.7-7.1L317.4,376.6z
		 M277,366.1c-0.5,0.2-0.9,0.5-1.4,0.9c-0.9,6-1.6,10.4-2.5,17.4l9.9-4.2L277,366.1z"/>
	<path class="st1" d="M355.9,355c-4.7-0.5-13.9-1.5-21.8-2.5c-2.4-0.3-3.3,0.1-4.1,0.9l7.1,7.9c3.4,3.7,4.1,3.6,8.6,0.1l1.4,1.5
		l-16.4,14.8l-1.4-1.5c3.7-3.9,3.9-4.7,0.6-8.4L314.9,351c-3.4-3.7-4.1-3.6-8.5-0.2l-1.4-1.5l16.1-14.5l1.4,1.5
		c-3.6,3.8-3.8,4.5-0.4,8.2l6.7,7.4c0.9-1.3,1.6-3.2,2.1-6.1c1-6.2,1.2-10.4,1.3-14c0-2.6-0.6-3.1-3.4-1l-1.1,0.8l-1.4-1.5
		l14.2-12.9l1.4,1.5c-3.2,3.3-4.9,5.9-5.9,10.9c-1.1,5.3-1.5,9.5-2.1,13.7c7.3,1,15.3,1.8,22.9,2.2c4.3,0.2,6.4-0.4,8.8-2.1l1.4,1.5
		L355.9,355z"/>
</g>
<g>
	<path class="st1" d="M212.7,324.2c-62.1,0-112.6-50.5-112.6-112.6c0-62.1,50.5-112.6,112.6-112.6s112.6,50.5,112.6,112.6
		C325.3,273.7,274.8,324.2,212.7,324.2z M212.7,101c-61,0-110.6,49.6-110.6,110.6c0,61,49.6,110.6,110.6,110.6
		c61,0,110.6-49.6,110.6-110.6C323.3,150.6,273.7,101,212.7,101z"/>
</g>
<g>
	<path class="st1" d="M212.7,355.6c-79.4,0-144-64.6-144-144c0-79.4,64.6-144,144-144c79.4,0,144,64.6,144,144
		C356.7,291,292.1,355.6,212.7,355.6z M212.7,69.6c-78.3,0-142,63.7-142,142c0,78.3,63.7,142,142,142c78.3,0,142-63.7,142-142
		C354.7,133.3,291,69.6,212.7,69.6z"/>
</g>
<g>
	<path class="st0" d="M57.5,287.4c0,3.6-2.9,6.5-6.5,6.5c-3.6,0-6.5-2.9-6.5-6.5c0-3.6,2.9-6.5,6.5-6.5
		C54.6,281,57.5,283.9,57.5,287.4z"/>
</g>
<g>
	<path class="st0" d="M380.7,287.4c0,3.6-2.9,6.5-6.5,6.5c-3.6,0-6.5-2.9-6.5-6.5c0-3.6,2.9-6.5,6.5-6.5
		C377.9,281,380.7,283.9,380.7,287.4z"/>
</g>
<g>
	<path class="st0" d="M249.9,123.4c-4.3-5.4-14.8-4.3-23.5,2.5c-1.9,1.5-3.6,3.2-5,4.9c1.1-6.3,1.7-14,1.7-22.2
		c0-22.1-4.5-40-10.2-40c-5.6,0-10.1,17.9-10.1,40c0,8.6,0.7,16.6,1.9,23.1c-1.5-2.1-3.4-4-5.7-5.8c-8.7-6.8-19.2-7.9-23.5-2.5
		c-4.3,5.4-0.7,15.4,8,22.2c1.5,1.2,3.1,2.2,4.6,3c-3-4-3.5-8.9-0.9-12.2c3.3-4.2,10.2-4.2,15.4-0.1c2.4,1.9,4,4.3,4.8,6.8
		c-5.3,0.9-8.9,3.1-8.9,5.5c0,2.8,4.6,5.1,10.8,5.8c-0.5,1.2-1,2.6-1.3,4.2c-2,3.1-5.6,4.3-8.1,2.8c-1.5-0.9-2.7-2-2.9-3.6
		c-0.1-0.6-0.3-1.6-0.9-0.6c-3.3,5.4-3.2,11.4,0.1,13.4c3,1.9,7.7-0.2,11-4.5c0,0,0,0,0,0c0,8.5,2.6,15.4,5.8,15.4
		c3.2,0,5.7-6.7,5.8-15c3.3,4.1,7.8,5.9,10.7,4.1c3.4-2.1,3.4-8.1,0.1-13.4c-0.6-0.9-0.7-0.1-0.8,0.4c-0.2,1.7-1.5,2.8-3,3.8
		c-2.3,1.4-5.6,0.4-7.6-2.2c-0.4-1.8-0.8-3.5-1.4-4.8c6.3-0.7,10.9-3,10.9-5.8c0-2.6-4.1-4.8-9.7-5.7c0.3-0.8,0.6-1.6,0.9-2.5
		c0.9-1.6,2.1-3,3.7-4.3c5.3-4.1,12.1-4.1,15.4,0.1c2.6,3.3,2.1,8.3-0.9,12.2c1.6-0.8,3.1-1.8,4.6-3
		C250.6,138.8,254.2,128.8,249.9,123.4z"/>
</g>
</svg>
